<svg id="escena1" xmlns="http://www.w3.org/2000/svg" viewBox="0 0 800 600">
  <defs>
    <style>
      .cls-3{fill:#b1cfde}.cls-4{fill:#ff1b4c}.cls-7{fill:#fff}.cls-8{fill:#4791b5}.cls-10{fill:#95bacc;opacity:.6}.cls-11{fill:#ffd061}
    </style>
  </defs>
  <path id="luz" fill="#1c90a3" d="M545 421H248l151.74-263L545 421z"/>
  <path id="vaca" d="M466.47 374.7s.61-.49-2.21-1.6-6.31-4.31-6.38-5.49c0 0 5-.5 5-1.81a11.12 11.12 0 0 0-6-.45c-3.09.74-3.56-.7-3.56-.7a11.62 11.62 0 0 1 5-.49c.14 0-1.56-1.23-5.2-1.16-3.89.09-4.26.1-5.54.43s-5.84.24-5.7 1.18-.74 1.23-1.55 1.48-13.62 3.56-17.11 3.89-13.35-.78-20.2.62-41.73-.41-41.73-.41-6.45-.17-8.39.9-6.58 1.23-5.64 11.68.34 11-.94 12.71-2.68 6.31 1.55 8.61c0 0 .67-3.52 1.61-4.55s.6-3.61.2-6.52-.74-13.36.4-15.33c0 0 4.09 9.06 4.7 11.19s-3.69 7.26-3.63 9.06-2.88 11-1.54 11.23 1.54-.78 1.61-.53-.22 2.46 1.94 3.2 5.24.82 6.05.24-1.75-1.55-2.62-2.25-3-3-2.28-5.49a20.1 20.1 0 0 1 2.79-5.34c.93-1.56 4.16-3.28 4.16-3.28a2.65 2.65 0 0 0 0 2.87c1 1.27 2.75 4 3.28 4.75s1.34 4.88 1.82 5.13 2.61 1 3.69 1.55 6.57.66 5.63-.24-3.42-1.6-4.76-2.79-2.95-5.37-3.16-6.11a27.19 27.19 0 0 1-.33-3.2 13.69 13.69 0 0 1 3 .17c.54.24 1.21 1.76 1.68 1.72s.47-1.8.87-2 4.09-1.19 5.3-2.42a3.85 3.85 0 0 1 3.36-.94 39.64 39.64 0 0 0 15 1c8.39-1.06 11.41-1.84 13.69-1.8s-.47 4.88.33 6.15-1.14 8.73-.26 9.14.17-.28.85-.41.76.82 1.43 1.44a4.81 4.81 0 0 0 4.29 1.47c2.22-.41 1.68.49 2.62.7s8.32.86 5.77-.66-4.63-1.43-4.77-3.32-.47-5.49.14-6 1-3 1.21-3.65 1.61-3.24 1.61-3.24a6.11 6.11 0 0 0 4.16-1c1.68-1.35 7.31-8.44 8.92-9.79s8.59-7.38 8.59-7.38a7.38 7.38 0 0 0 3-.45 33.19 33.19 0 0 0 7.32.49c2.61-.33 3.55.29 4.89.29s6.85-.12 6.04-2.49zm-50.7 33.17c-.7-.77-1.12-4.35-.94-5.16s1.15-3.54 1.15-3.54.24.87.45 1.39a36.17 36.17 0 0 1 .28 4.94 15.3 15.3 0 0 1-.56 2.71s.32.43-.38-.34z" fill="#000d20"/>
  <g id="ufo_boom">
    <path class="cls-3" d="M449.01 81.73l-.81-.81-.81-.81-17.45 15.62 1.67 1.66 1.66 1.67 15.74-17.33z"/>
    <path class="cls-4" d="M451.91 82.15a3.5 3.5 0 1 1 .07-5 3.54 3.54 0 0 1-.07 5z"/>
    <path class="cls-3" d="M350.99 81.73l.81-.81.81-.81 17.45 15.62-1.67 1.66-1.66 1.67-15.74-17.33z"/>
    <path class="cls-4" d="M348.09 82.15a3.5 3.5 0 1 0-.07-5 3.54 3.54 0 0 0 .07 5z"/>
    <path d="M428.19 88.19c0 15.57-12.62 29-28.19 29s-28.19-13.39-28.19-29a28.19 28.19 0 0 1 56.38 0z" fill="#ceeaf7"/>
    <path d="M374.36 76.49a28.16 28.16 0 0 0 31.12-15.95 28.24 28.24 0 0 0-31.12 15.95z" opacity=".4" fill="#fff"/>
    <path class="cls-7" d="M396.65 72.94a5.63 5.63 0 1 1-5.65-5.63 5.63 5.63 0 0 1 5.65 5.63z"/>
    <path class="cls-4" d="M429.11 84.09h-58.22a4.66 4.66 0 0 0-4.66 4.66v8.75h67.54v-8.75a4.66 4.66 0 0 0-4.66-4.66z"/>
    <path class="cls-8" d="M433.73 89.73h-67.46a5.4 5.4 0 0 0-5.4 5.4V106h78.26V95.13a5.4 5.4 0 0 0-5.4-5.4z"/>
    <ellipse cx="400" cy="140.73" rx="40.35" ry="27.37" fill="#ffcc54"/>
    <path class="cls-8" d="M366.42 158.34h67.16A5.39 5.39 0 0 0 439 153v-10.14h-78V153a5.39 5.39 0 0 0 5.42 5.34z"/>
    <path class="cls-3" d="M400 150.62c64.58 0 103.47-26.18 103.47-26.18H296.53s38.89 26.18 103.47 26.18z"/>
    <path class="cls-10" d="M400 150.62c44 0 70.5-26.18 70.5-26.18h-141s26.5 26.18 70.5 26.18z"/>
    <path class="cls-3" d="M400 150.62c17.15 0 27.48-26.18 27.48-26.18h-55s10.37 26.18 27.52 26.18zM427.27 95.17h-54.54c-67 0-80 27-80 27h214.58s-13.07-27-80.04-27z"/>
    <path class="cls-10" d="M418.21 95.17h-36.42c-44.73 0-53.46 27-53.46 27h143.34s-8.73-27-53.46-27z"/>
    <path class="cls-3" d="M406 96h-12c-14.78 0-17.66 27-17.66 27h47.36s-2.9-27-17.7-27z"/>
    <path class="cls-8" d="M506.78 118.16A5.83 5.83 0 0 1 501 124H299.05a5.83 5.83 0 0 1-5.83-5.83 5.83 5.83 0 0 1 5.83-5.83H501a5.83 5.83 0 0 1 5.83 5.83z"/>
    <path class="cls-8" d="M506.78 128.4a5.83 5.83 0 0 1-5.83 5.83h-201.9a5.83 5.83 0 0 1-5.83-5.83 5.83 5.83 0 0 1 5.83-5.83H501a5.83 5.83 0 0 1 5.83 5.83z"/>
    <path class="cls-4" d="M511.7 123.28a6.1 6.1 0 0 1-6.1 6.1H294.4a6.1 6.1 0 0 1-6.1-6.1 6.1 6.1 0 0 1 6.1-6.1h211.2a6.1 6.1 0 0 1 6.1 6.1z"/>
    <path class="cls-11" d="M299.37 123.28a3.3 3.3 0 1 1-3.3-3.29 3.3 3.3 0 0 1 3.3 3.29z"/>
    <path class="cls-7" d="M296.91 122.54a1.49 1.49 0 1 1-1.49-1.48 1.49 1.49 0 0 1 1.49 1.48z"/>
    <path class="cls-11" d="M315.37 123.28a3.3 3.3 0 1 1-3.29-3.29 3.29 3.29 0 0 1 3.29 3.29z"/>
    <path class="cls-7" d="M312.92 122.54a1.49 1.49 0 1 1-1.49-1.48 1.49 1.49 0 0 1 1.49 1.48z"/>
    <path class="cls-11" d="M331.38 123.28a3.3 3.3 0 1 1-3.29-3.29 3.3 3.3 0 0 1 3.29 3.29z"/>
    <path class="cls-7" d="M328.92 122.54a1.49 1.49 0 1 1-1.49-1.48 1.48 1.48 0 0 1 1.49 1.48z"/>
    <path class="cls-11" d="M347.39 123.28a3.3 3.3 0 1 1-3.3-3.29 3.3 3.3 0 0 1 3.3 3.29z"/>
    <path class="cls-7" d="M344.93 122.54a1.49 1.49 0 1 1-1.49-1.48 1.49 1.49 0 0 1 1.49 1.48z"/>
    <path class="cls-11" d="M363.39 123.28a3.3 3.3 0 1 1-3.29-3.28 3.29 3.29 0 0 1 3.29 3.28z"/>
    <path class="cls-7" d="M360.94 122.54a1.49 1.49 0 1 1-1.49-1.48 1.49 1.49 0 0 1 1.49 1.48z"/>
    <path class="cls-11" d="M379.4 123.28a3.3 3.3 0 1 1-3.3-3.29 3.3 3.3 0 0 1 3.3 3.29z"/>
    <path class="cls-7" d="M376.94 122.54a1.49 1.49 0 1 1-1.49-1.48 1.49 1.49 0 0 1 1.49 1.48z"/>
    <path class="cls-11" d="M395.4 123.28a3.29 3.29 0 1 1-3.29-3.29 3.29 3.29 0 0 1 3.29 3.29z"/>
    <path class="cls-7" d="M393 122.54a1.49 1.49 0 1 1-1.49-1.48 1.49 1.49 0 0 1 1.49 1.48z"/>
    <path class="cls-11" d="M411.41 123.28a3.3 3.3 0 1 1-3.29-3.29 3.29 3.29 0 0 1 3.29 3.29z"/>
    <path class="cls-7" d="M409 122.54a1.49 1.49 0 1 1-1.48-1.48 1.48 1.48 0 0 1 1.48 1.48z"/>
    <path class="cls-11" d="M427.42 123.28a3.3 3.3 0 1 1-3.3-3.29 3.3 3.3 0 0 1 3.3 3.29z"/>
    <path class="cls-7" d="M425 122.54a1.49 1.49 0 1 1-1.49-1.48 1.49 1.49 0 0 1 1.49 1.48z"/>
    <path class="cls-11" d="M443.42 123.28a3.3 3.3 0 1 1-3.29-3.29 3.29 3.29 0 0 1 3.29 3.29z"/>
    <path class="cls-7" d="M441 122.54a1.49 1.49 0 1 1-1.49-1.48 1.49 1.49 0 0 1 1.49 1.48z"/>
    <path class="cls-11" d="M459.43 123.28a3.3 3.3 0 1 1-3.3-3.29 3.3 3.3 0 0 1 3.3 3.29z"/>
    <path class="cls-7" d="M457 122.54a1.49 1.49 0 1 1-1.49-1.48 1.48 1.48 0 0 1 1.49 1.48z"/>
    <path class="cls-11" d="M475.44 123.28a3.3 3.3 0 1 1-3.3-3.29 3.3 3.3 0 0 1 3.3 3.29z"/>
    <path class="cls-7" d="M473 122.54a1.49 1.49 0 1 1-1.49-1.48 1.49 1.49 0 0 1 1.49 1.48z"/>
    <path class="cls-11" d="M491.44 123.28a3.3 3.3 0 1 1-3.29-3.29 3.29 3.29 0 0 1 3.29 3.29z"/>
    <path class="cls-7" d="M489 122.54a1.49 1.49 0 1 1-1.48-1.48 1.48 1.48 0 0 1 1.48 1.48z"/>
    <path class="cls-11" d="M507.45 123.28a3.3 3.3 0 1 1-3.3-3.29 3.3 3.3 0 0 1 3.3 3.29z"/>
    <path class="cls-7" d="M505 122.54a1.49 1.49 0 1 1-1.49-1.48 1.49 1.49 0 0 1 1.49 1.48z"/>
  </g>
</svg>
